:FULLY-SPECIFIED
:FORCE-ALL-JOINTS-BE-3DOF
:DEGREES
1121
root 0.918734 14.6701 -28.2686 1.75942 5.41732 4.32723
lfemur -29.6202 8.64532 -26.2727
ltibia 70.7291 -0 0
lfoot -27.7477 25.401 -0.00316056
ltoes -20.4015 0 0
rfemur -58.9262 -9.23634 17.5436
rtibia 80.9236 -0 0
rfoot -1.24908 -2.00281 0.670188
rtoes -3.30906 0 0
lowerback 15.2941 0.289015 -10.9943
upperback -0.924545 -1.47701 1.7099
thorax -9.38497 -0.100792 8.49362
lowerneck -4.53012 -2.35479 -3.99787
upperneck 4.70754 -3.08317 3.98388
head 2.37624 -1.51119 1.75503
lclavicle 2.374e-014 1.39149e-014 0
lhumerus 51.4973 -40.816 55.693
lradius 91.0861 -0 0
lwrist 36.2208 0 0
lhand -31.0847 34.0509 -0.27752
lfingers 7.12502 -0 0
lthumb -4.36401 63.9259 -0.26558
rclavicle 2.374e-014 1.39149e-014 0
rhumerus -17.5519 31.7647 -90.5498
rradius 85.7883 -0 0
rwrist -24.9176 0 0
rhand -20.0622 -45.3361 -0.292754
rfingers 7.12502 -0 0
rthumb 6.27896 -75.2137 -0.279898
1122
root 0.879494 14.6894 -28.0601 1.34126 6.99723 4.34163
lfemur -27.9758 8.31871 -25.7602
ltibia 69.9856 -0 0
lfoot -28.062 25.3789 -0.00534963
ltoes -20.5501 0 0
rfemur -58.1247 -8.88517 16.0265
rtibia 77.1253 -0 0
rfoot 1.82332 -1.73261 0.727434
rtoes -1.37074 0 0
lowerback 15.1669 0.230167 -10.8482
upperback -0.891838 -1.50903 1.73974
thorax -9.27105 -0.131641 8.44334
lowerneck -4.38419 -2.79156 -4.33914
upperneck 4.98169 -3.66389 4.13685
head 2.46404 -1.80466 1.82751
lclavicle 2.374e-014 1.39149e-014 0
lhumerus 45.2957 -43.8794 59.075
lradius 92.5251 -0 0
lwrist 36.5745 0 0
lhand -30.4303 33.3518 -0.306456
lfingers 7.12502 -0 0
lthumb -3.73214 63.2335 -0.293279
rclavicle 2.374e-014 1.39149e-014 0
rhumerus -13.0219 31.8053 -88.0933
rradius 87.4854 -0 0
rwrist -23.0654 0 0
rhand -20.6017 -44.6911 -0.313055
rfingers 7.12502 -0 0
rthumb 5.75803 -74.5841 -0.298783
1123
root 0.840255 14.7086 -27.8517 0.92047 8.59232 4.32667
lfemur -26.3265 7.98809 -25.2127
ltibia 69.2307 -0 0
lfoot -28.3696 25.3583 -0.00782505
ltoes -20.6759 0 0
rfemur -57.1982 -8.49483 14.4394
rtibia 73.1535 -0 0
rfoot 5.01924 -1.46032 0.768109
rtoes 0.608418 -0 0
lowerback 15.0272 0.170224 -10.6771
upperback -0.86018 -1.53658 1.77533
thorax -9.15174 -0.161628 8.38354
lowerneck -4.2331 -3.23224 -4.68764
upperneck 5.26387 -4.25176 4.28798
head 2.55548 -2.10163 1.90013
lclavicle 2.374e-014 1.39149e-014 0
lhumerus 38.3111 -46.6781 63.2004
lradius 94.0043 -0 0
lwrist 36.9287 0 0
lhand -29.7568 32.6346 -0.327187
lfingers 7.12502 -0 0
lthumb -3.08167 62.5231 -0.313124
rclavicle 2.374e-014 1.39149e-014 0
rhumerus -8.39633 31.6622 -85.5333
rradius 89.2746 -0 0
rwrist -21.1979 0 0
rhand -21.1484 -44.0025 -0.325489
rfingers 7.12502 -0 0
rthumb 5.23008 -73.9101 -0.310111
1124
root 0.801015 14.7279 -27.6432 0.498609 10.1912 4.28483
lfemur -24.6802 7.65302 -24.6379
ltibia 68.4686 -0 0
lfoot -28.6681 25.3416 -0.0104662
ltoes -20.7809 0 0
rfemur -56.1775 -8.06931 12.8106
rtibia 69.0706 -0 0
rfoot 8.28642 -1.18617 0.790977
rtoes 2.60201 -0 0
lowerback 14.878 0.111011 -10.4862
upperback -0.829759 -1.5589 1.81456
thorax -9.02908 -0.190003 8.31495
lowerneck -4.07783 -3.67447 -5.04176
upperneck 5.55057 -4.84377 4.43801
head 2.64962 -2.40055 1.97305
lclavicle 2.374e-014 1.39149e-014 0
lhumerus 30.5321 -49.088 68.0976
lradius 95.5065 -0 0
lwrist 37.2865 0 0
lhand -29.0704 31.911 -0.33875
lfingers 7.12502 -0 0
lthumb -2.41887 61.8064 -0.324194
rclavicle 2.374e-014 1.39149e-014 0
rhumerus -3.72848 31.3273 -82.9128
rradius 91.124 -0 0
rwrist -19.3246 0 0
rhand -21.7016 -43.2824 -0.329759
rfingers 7.12502 -0 0
rthumb 4.69578 -73.2037 -0.313626
1125
root 0.761776 14.7471 -27.4348 0.0774199 11.7823 4.21883
lfemur -23.0449 7.31366 -24.0431
ltibia 67.7035 -0 0
lfoot -28.9549 25.3313 -0.0131267
ltoes -20.8672 0 0
rfemur -55.0927 -7.61489 11.1676
rtibia 64.939 -0 0
rfoot 11.5726 -0.910569 0.795275
rtoes 4.58365 -0 0
lowerback 14.7222 0.054322 -10.2808
upperback -0.800761 -1.57525 1.85533
thorax -8.90515 -0.216024 8.23827
lowerneck -3.9194 -4.1159 -5.39987
upperneck 5.83825 -5.43693 4.58777
head 2.74552 -2.69981 2.0464
lclavicle 2.374e-014 1.39149e-014 0
lhumerus 22.0231 -50.9872 73.7164
lradius 97.0149 -0 0
lwrist 37.6509 0 0
lhand -28.3777 31.1927 -0.340615
lfingers 7.12502 -0 0
lthumb -1.75 61.0948 -0.325981
rclavicle 2.374e-014 1.39149e-014 0
rhumerus 0.928359 30.7995 -80.2749
rradius 93.0017 -0 0
rwrist -17.4548 0 0
rhand -22.2607 -42.5429 -0.325801
rfingers 7.12502 -0 0
rthumb 4.15583 -72.4768 -0.3093
1126
root 0.722536 14.7664 -27.2263 -0.341104 13.3545 4.1317
lfemur -21.4285 6.97073 -23.4357
ltibia 66.9397 -0 0
lfoot -29.2277 25.3299 -0.0156375
ltoes -20.9367 0 0
rfemur -53.9726 -7.14039 9.53714
rtibia 60.8212 -0 0
rfoot 14.8255 -0.634034 0.780732
rtoes 6.52694 -0 0
lowerback 14.5629 0.00190312 -10.0662
upperback -0.773369 -1.58486 1.89556
thorax -8.78203 -0.238957 8.15422
lowerneck -3.75889 -4.55419 -5.76031
upperneck 6.12337 -6.02821 4.73823
head 2.84224 -2.99786 2.12036
lclavicle 2.374e-014 1.39149e-014 0
lhumerus 12.9563 -52.2723 79.8975
lradius 98.5126 -0 0
lwrist 38.0251 0 0
lhand -27.6853 30.4916 -0.332698
lfingers 7.12502 -0 0
lthumb -1.08135 60.4002 -0.318405
rclavicle 2.374e-014 1.39149e-014 0
rhumerus 5.52296 30.0848 -77.6602
rradius 94.8757 -0 0
rwrist -15.598 0 0
rhand -22.825 -41.796 -0.313797
rfingers 7.12502 -0 0
rthumb 3.61093 -71.7414 -0.297333
1127
root 0.683297 14.7856 -27.0179 -0.754674 14.8963 4.02675
lfemur -19.8386 6.62554 -22.8226
ltibia 66.1814 -0 0
lfoot -29.4841 25.3398 -0.017812
ltoes -20.9913 0 0
rfemur -52.845 -6.65723 7.945
rtibia 56.7794 -0 0
rfoot 17.9928 -0.357043 0.747576
rtoes 8.40551 -0 0
lowerback 14.403 -0.0445463 -9.84784
upperback -0.747765 -1.58698 1.93314
thorax -8.66178 -0.258073 8.06351
lowerneck -3.59745 -4.98705 -6.12138
upperneck 6.40239 -6.61461 4.89042
head 2.93885 -3.29309 2.19512
lclavicle 2.374e-014 1.39149e-014 0
lhumerus 3.61662 -52.8786 86.3677
lradius 99.9827 -0 0
lwrist 38.4121 0 0
lhand -26.9996 29.8193 -0.315355
lfingers 7.12502 -0 0
lthumb -0.419192 59.7342 -0.301805
rclavicle 2.374e-014 1.39149e-014 0
rhumerus 10.0082 29.196 -75.1048
rradius 96.7142 -0 0
rwrist -13.7636 0 0
rhand -23.3936 -41.0539 -0.29418
rfingers 7.12502 -0 0
rthumb 3.06175 -71.0094 -0.278169
1128
root 0.644057 14.8049 -26.8094 -1.16065 16.3966 3.90768
lfemur -18.2828 6.27997 -22.2108
ltibia 65.4326 -0 0
lfoot -29.7215 25.3635 -0.0194504
ltoes -21.0331 0 0
rfemur -51.7365 -6.17932 6.41582
rtibia 52.8761 -0 0
rfoot 21.0224 -0.0799371 0.696534
rtoes 10.1929 -0 0
lowerback 14.2455 -0.0833796 -9.63102
upperback -0.724128 -1.58086 1.96597
thorax -8.54649 -0.272659 7.96688
lowerneck -3.43627 -5.41218 -6.48133
upperneck 6.67172 -7.19309 5.04552
head 3.03441 -3.58393 2.27088
lclavicle 2.374e-014 1.39149e-014 0
lhumerus -5.63887 -52.7978 92.7821
lradius 101.408 -0 0
lwrist 38.815 0 0
lhand -26.3271 29.1876 -0.289367
lfingers 7.12502 -0 0
lthumb 0.230216 59.1084 -0.27693
rclavicle 2.374e-014 1.39149e-014 0
rhumerus 14.3422 28.152 -72.6384
rradius 98.4853 -0 0
rwrist -11.9612 0 0
rhand -23.9661 -40.3284 -0.267635
rfingers 7.12502 -0 0
rthumb 2.50897 -70.2927 -0.252493
1129
root 0.604818 14.8241 -26.601 -1.55602 17.8441 3.77852
lfemur -16.7685 5.93645 -21.6069
ltibia 64.6977 -0 0
lfoot -29.9376 25.4035 -0.0203473
ltoes -21.064 0 0
rfemur -50.6723 -5.72292 4.97316
rtibia 49.1738 -0 0
rfoot 23.8618 0.197188 0.628817
rtoes 11.8629 -0 0
lowerback 14.0934 -0.113002 -9.42114
upperback -0.702642 -1.56572 1.99197
thorax -8.43825 -0.28201 7.86505
lowerneck -3.2766 -5.82735 -6.83839
upperneck 6.92778 -7.76059 5.20477
head 3.12799 -3.8688 2.34785
lclavicle 2.374e-014 1.39149e-014 0
lhumerus -14.4574 -52.0822 98.8006
lradius 102.772 -0 0
lwrist 39.2369 0 0
lhand -25.6742 28.6083 -0.255908
lfingers 7.12502 -0 0
lthumb 0.860662 58.5346 -0.244904
rclavicle 2.374e-014 1.39149e-014 0
rhumerus 18.4896 26.9765 -70.2837
rradius 100.157 -0 0
rwrist -10.2 0 0
rhand -24.5416 -39.6317 -0.23511
rfingers 7.12502 -0 0
rthumb 1.9532 -69.6031 -0.221238
1130
root 0.565578 14.8434 -26.3925 -1.93733 19.2279 3.64372
lfemur -15.3029 5.5979 -21.0173
ltibia 63.9809 -0 0
lfoot -30.1299 25.4622 -0.0202985
ltoes -21.0861 0 0
rfemur -49.6765 -5.3063 3.63953
rtibia 45.7349 -0 0
rfoot 26.4589 0.47457 0.546112
rtoes 13.3889 -0 0
lowerback 13.9498 -0.131868 -9.22355
upperback -0.68349 -1.54081 2.00904
thorax -8.33913 -0.285433 7.75875
lowerneck -3.11977 -6.2303 -7.19077
upperneck 7.16695 -8.31409 5.36951
head 3.21866 -4.14609 2.42626
lclavicle 2.374e-014 1.39149e-014 0
lhumerus -22.564 -50.8342 104.163
lradius 104.058 -0 0
lwrist 39.6808 0 0
lhand -25.0474 28.0931 -0.216503
lfingers 7.12502 -0 0
lthumb 1.46597 58.0242 -0.207187
rclavicle 2.374e-014 1.39149e-014 0
rhumerus 22.4211 25.6971 -68.0559
rradius 101.698 -0 0
rwrist -8.48968 0 0
rhand -25.1196 -38.9758 -0.197809
rfingers 7.12502 -0 0
rthumb 1.39504 -68.9528 -0.185584
1131
root 0.526339 14.8626 -26.1841 -2.3007 20.5368 3.5081
lfemur -13.8932 5.26772 -20.4484
ltibia 63.2863 -0 0
lfoot -30.2959 25.5422 -0.01911
ltoes -21.1012 0 0
rfemur -48.7722 -4.94939 2.4366
rtibia 42.6217 -0 0
rfoot 28.7615 0.752846 0.45057
rtoes 14.7446 -0 0
lowerback 13.8178 -0.138474 -9.04366
upperback -0.666865 -1.50537 2.01507
thorax -8.25124 -0.282248 7.64872
lowerneck -2.96714 -6.61884 -7.5366
upperneck 7.3856 -8.85049 5.54119
head 3.30548 -4.41423 2.50636
lclavicle 2.374e-014 1.39149e-014 0
lhumerus -29.7957 -49.1854 108.723
lradius 105.248 -0 0
lwrist 40.1499 0 0
lhand -24.4529 27.6536 -0.17297
lfingers 7.12502 -0 0
lthumb 2.04002 57.5889 -0.165521
rclavicle 2.374e-014 1.39149e-014 0
rhumerus 26.1131 24.3441 -65.9631
rradius 103.075 -0 0
rwrist -6.83954 0 0
rhand -25.6996 -38.3727 -0.157199
rfingers 7.12502 -0 0
rthumb 0.835026 -68.3533 -0.146962
